<?xml version="1.0" encoding="utf-8" ?><svg xmlns="http://www.w3.org/2000/svg" xmlns:xlink="http://www.w3.org/1999/xlink" width="2315" height="2315" viewBox="0 0 2315 2315"><path fill="#E65A32" transform="scale(2.26079 2.26079)" d="M646.735 720.338L485.863 720.461L440.675 720.481C428.465 720.482 414.525 721.038 402.655 718.752C373.24 712.939 349.211 697.39 332.365 672.686C312.619 643.729 314.536 617.721 314.493 584.869L314.434 516.44L314.415 448.66C314.353 430.31 313.308 406.382 316.919 388.993C322.789 361.294 339.515 337.103 363.357 321.83C389.389 304.925 411.419 304.48 440.838 304.416L487.063 304.363L636.461 304.423C650.036 304.538 663.611 304.562 677.186 304.496C682.43 304.473 698.044 304.092 702.605 305.058L711.481 304.723C712.691 305.422 713.148 305.731 714.27 306.551C687.668 320.052 674.479 339.459 665.002 367.667C655.185 396.888 653.501 430.656 667.952 458.742C669.386 461.504 670.913 464.216 672.53 466.875C654.064 460.616 638.127 450.041 627.387 433.447C621.679 427.995 614.377 416.313 610.242 409.329C597.04 387.028 581.475 362.168 557.471 350.3C554.702 351.297 549.255 351.552 546.037 352.165C479.779 364.773 432.644 432.971 423.829 496.551C414.137 566.465 434.996 660.514 513.179 680.04C514.69 680.42 516.178 680.511 517.471 681.41C522.759 681.113 533.3 675.967 537.571 672.857C573.579 646.638 572.092 583.024 550.044 548.716C537.246 528.803 509.615 516.882 486.979 512.925C486.487 512.993 486.01 513.075 485.516 513.091C484.44 512.375 484.355 512.365 483.506 511.447C489.656 511.689 495.969 511.354 502.2 511.583C518.161 511.412 706.851 510.317 710.188 511.523C714.537 511.6 719.564 510.991 724.413 511.011C722.472 511.723 720.538 512.476 718.671 513.362C694.555 523.332 675.498 545.01 667.089 569.469C649.72 619.992 660.801 695.992 715.49 718.407L717.192 719.096C718.157 719.203 719.465 719.472 720.368 719.803L719.963 719.669C720.231 719.84 720.499 720.01 720.767 720.181C720.75 720.591 717.461 720.591 717.092 720.612C713.453 722.589 709.511 721.778 705.68 720.58C701.125 720.048 690.155 720.328 685.222 720.334L646.735 720.338Z"/><path fill="#16917A" transform="scale(2.26079 2.26079)" d="M517.471 681.41C498.24 686.728 475.317 680.588 458.022 671.659C331.026 606.09 341.215 387.485 481.192 343.191C508.514 334.545 531.984 337.195 557.471 350.3C554.702 351.297 549.255 351.552 546.037 352.165C479.779 364.773 432.644 432.971 423.829 496.551C414.137 566.465 434.996 660.514 513.179 680.04C514.69 680.42 516.178 680.511 517.471 681.41Z"/><path fill="#16917A" transform="scale(2.26079 2.26079)" d="M710.188 511.523C714.537 511.6 719.564 510.991 724.413 511.011C722.472 511.723 720.538 512.476 718.671 513.362C694.555 523.332 675.498 545.01 667.089 569.469C649.72 619.992 660.801 695.992 715.49 718.407L717.192 719.096C718.157 719.203 719.465 719.472 720.368 719.803L719.963 719.669C720.231 719.84 720.499 720.01 720.767 720.181C720.75 720.591 717.461 720.591 717.092 720.612C713.453 722.589 709.511 721.778 705.68 720.58C706.987 720.51 708.294 720.449 709.602 720.396L707.4 719.296C704.68 718.418 698.273 718.098 695.387 717.917C631.688 705.969 611.98 658.163 615.702 597.953C618.763 548.448 652.593 520.334 700.189 513.127C703.449 512.634 706.692 512.004 710.02 512.013L710.188 511.523Z"/><path fill="#2E6E6A" transform="scale(2.26079 2.26079)" d="M717.192 719.096C718.157 719.203 719.465 719.472 720.368 719.803L719.963 719.669C720.231 719.84 720.499 720.01 720.767 720.181C720.75 720.591 717.461 720.591 717.092 720.612C713.453 722.589 709.511 721.778 705.68 720.58C706.987 720.51 708.294 720.449 709.602 720.396L707.4 719.296C711.339 719.566 713.917 720.818 717.192 719.096Z"/><path fill="#51332C" transform="scale(2.26079 2.26079)" d="M709.602 720.396C712.14 720.534 714.556 720.553 717.092 720.612C713.453 722.589 709.511 721.778 705.68 720.58C706.987 720.51 708.294 720.449 709.602 720.396Z"/><path fill="#2E6E6A" transform="scale(2.26079 2.26079)" d="M710.188 511.523C714.537 511.6 719.564 510.991 724.413 511.011C722.472 511.723 720.538 512.476 718.671 513.362C714.829 510.394 714.782 512.408 710.02 512.013L710.188 511.523Z"/><path fill="#16917A" transform="scale(2.26079 2.26079)" d="M702.605 305.058L711.481 304.723C712.691 305.422 713.148 305.731 714.27 306.551C687.668 320.052 674.479 339.459 665.002 367.667C655.185 396.888 653.501 430.656 667.952 458.742C669.386 461.504 670.913 464.216 672.53 466.875C654.064 460.616 638.127 450.041 627.387 433.447C623.348 422.07 620.902 414.39 619.171 402.237C612.778 357.354 639.169 315.313 685.057 307.558C691.029 306.549 696.605 305.855 702.605 305.058Z"/><path fill="#E89765" transform="scale(2.26079 2.26079)" d="M695.387 717.917C698.273 718.098 704.68 718.418 707.4 719.296L709.602 720.396C708.294 720.449 706.987 720.51 705.68 720.58C701.125 720.048 690.155 720.328 685.222 720.334L646.735 720.338C654.081 718.95 694.963 721.195 697.744 719.269L695.387 717.917Z"/><path fill="#E89765" transform="scale(2.26079 2.26079)" d="M483.506 511.447C489.656 511.689 495.969 511.354 502.2 511.583C497.308 512.153 491.875 511.798 486.78 512.262C486.796 512.533 486.894 512.68 486.979 512.925C486.487 512.993 486.01 513.075 485.516 513.091C484.44 512.375 484.355 512.365 483.506 511.447Z"/><path fill="#E65A32" transform="scale(2.26079 2.26079)" d="M748.486 489.898C763.268 487.22 777.4 497.101 779.958 511.905C782.516 526.708 772.52 540.76 757.697 543.198C743.042 545.608 729.186 535.75 726.657 521.116C724.128 506.482 733.872 492.546 748.486 489.898Z"/><path fill="#2E6E6A" transform="scale(2.26079 2.26079)" d="M711.481 304.723C713.99 304.579 716.991 304.601 719.543 304.553L714.971 306.269C714.737 306.363 714.503 306.457 714.27 306.551C713.148 305.731 712.691 305.422 711.481 304.723Z"/><path fill="#86634B" transform="scale(2.26079 2.26079)" d="M476.15 511.947C478.574 511.497 481.047 511.441 483.506 511.447C484.355 512.365 484.44 512.375 485.516 513.091C482.958 512.502 478.902 512.236 476.15 511.947Z"/></svg>